<svg xmlns="http://www.w3.org/2000/svg" width="154.5" height="34.782" viewBox="0 0 154.5 34.782"><path d="M46.05,73.084a14.257,14.257,0,0,0,0,28.511c4.961,0,9.111-1.944,11.687-5.471L58.8,94.67l-4.042-3.164-1.135,1.559A8.951,8.951,0,0,1,46.1,96.479a8.769,8.769,0,0,1-8.624-6.989H60.112V86.4A13.645,13.645,0,0,0,46.05,73.084ZM37.711,84.325a8.862,8.862,0,0,1,16.825,0Z" transform="translate(-31.986 -66.861)"/><path d="M118.734,73.084a14.257,14.257,0,0,0,0,28.511c4.959,0,9.111-1.944,11.687-5.471l1.063-1.454-4.043-3.164-1.134,1.559a8.953,8.953,0,0,1-7.524,3.414,8.769,8.769,0,0,1-8.624-6.989H132.8V86.4A13.645,13.645,0,0,0,118.734,73.084Zm-8.34,11.241a8.863,8.863,0,0,1,16.826,0Z" transform="translate(-10.457 -66.861)"/><path d="M143.481,73.084a14.28,14.28,0,1,0,14.16,14.3A14.081,14.081,0,0,0,143.481,73.084Zm8.8,14.3a8.782,8.782,0,1,1-8.8-9.042A8.806,8.806,0,0,1,152.285,87.388Z" transform="translate(-3.14 -66.861)" fill="#5972d9"/><g transform="translate(32.544 6.923)"><path d="M79.866,100.769H74.651V82.078a3.448,3.448,0,0,0-3.616-3.241H62.308v21.932H57.093V73.624H71.036a8.658,8.658,0,0,1,8.83,8.454Z" transform="translate(-57.093 -73.624)"/></g><g transform="translate(78.66 6.923)"><path d="M97.884,100.769H92.671V82.078a8.658,8.658,0,0,1,8.831-8.454h4.64v5.213H101.5a3.449,3.449,0,0,0-3.618,3.241Z" transform="translate(-92.671 -73.624)"/></g><path d="M87.348,97.138A3.449,3.449,0,0,1,83.73,93.9V80.367h4.931V75.2H83.73V68.283H78.517V93.9a8.658,8.658,0,0,0,8.831,8.454h4.64V97.138Z" transform="translate(-18.203 -68.283)"/></svg>